<?xml version="1.0" encoding="UTF-8"?>
<svg id="Layer_1" xmlns="http://www.w3.org/2000/svg" version="1.1" viewBox="0 0 92.8 75">
  <!-- Generator: Adobe Illustrator 29.5.1, SVG Export Plug-In . SVG Version: 2.1.0 Build 141)  -->
  <defs>
    <style>
      .st0 {
        fill: #a14fd6;
      }

      .st1 {
        fill: #42e0ce;
      }
    </style>
  </defs>
  <path class="st0" d="M47.47,11.73l-.11,57.31,41.88-11.73.1-57.31-41.88,11.73ZM83.56,36.84c-1.5,4.61-4.43,8.63-8.35,11.48-2.08,1.51-4.41,2.63-6.89,3.3-2.57.72-4.86.9-6.88.55-1.88-.29-3.65-1.08-5.12-2.28-1.43-1.22-2.53-2.78-3.19-4.54-.76-2-1.13-4.13-1.09-6.26.01-2.34.39-4.66,1.12-6.88,1.5-4.61,4.42-8.63,8.35-11.48,2.08-1.51,4.41-2.63,6.89-3.3,1.54-.46,3.15-.68,4.75-.67,1.35.02,2.69.25,3.97.7,1.16.41,2.23,1.03,3.16,1.84.92.8,1.7,1.75,2.31,2.8l-5.2,5.07c-.72-1.33-1.89-2.36-3.31-2.9-1.49-.6-3.39-.58-5.69.06-1.6.43-3.11,1.14-4.47,2.09-1.24.87-2.33,1.92-3.24,3.13-1.7,2.27-2.62,5.03-2.63,7.86-.02,1.27.2,2.53.65,3.71.4,1.05,1.07,1.98,1.95,2.68.94.72,2.05,1.18,3.23,1.32,1.28.2,2.77.06,4.47-.43,2.34-.61,4.49-1.82,6.22-3.51,1.55-1.52,2.73-3.38,3.44-5.43l-11.96,3.35v-6.23l18.49-5.18c.04.35.08.72.1,1.1s.03.76.03,1.16c-.01,2.34-.39,4.66-1.12,6.88h0Z"/>
  <polygon class="st1" points="18.82 41.71 29.7 44.7 24.28 30.46 18.82 41.71"/>
  <path class="st1" d="M3.06,5.99l-.11,57.31,42.48,11.7.11-57.31L3.06,5.99ZM35.35,59.61l-2.74-7.18-16.75-4.61-2.76,5.67-6.36-1.76,13.72-28.34,7.65,2.12,13.6,35.86-6.36-1.75Z"/>
</svg>